<?xml version="1.0" encoding="UTF-8" standalone="no"?>
<!-- Created with Inkscape (http://www.inkscape.org/) -->

<svg
   width="20.046768mm"
   height="20.17395mm"
   viewBox="0 0 20.046768 20.17395"
   version="1.1"
   id="svg1"
   xmlns="http://www.w3.org/2000/svg"
   xmlns:svg="http://www.w3.org/2000/svg">
  <defs
     id="defs1" />
  <g
     id="layer1"
     transform="translate(-170.39166,-87.312499)">
    <path
       d="m 170.39166,88.757635 c 0,-0.797911 0.66324,-1.445136 1.48142,-1.445136 h 17.08393 c 0.81816,0 1.48142,0.647225 1.48142,1.445136 v 17.283675 c 0,0.79818 -0.66326,1.44514 -1.48142,1.44514 h -17.08393 c -0.81818,0 -1.48142,-0.64696 -1.48142,-1.44514 z"
       style="fill:#ffffff;fill-opacity:1;fill-rule:nonzero;stroke:none;stroke-width:0.269565"
       id="path14" />
    <path
       d="m 176.46846,104.20018 v -9.109663 h -3.02789 v 9.109663 z M 174.9545,93.846746 c 1.05589,0 1.71308,-0.699521 1.71308,-1.573719 -0.0197,-0.893876 -0.65719,-1.573988 -1.69305,-1.573988 -1.03575,0 -1.71295,0.680112 -1.71295,1.573988 0,0.874198 0.65707,1.573719 1.67319,1.573719 h 0.0197 z"
       style="fill:#000000;fill-opacity:1;fill-rule:evenodd;stroke:none;stroke-width:0.269565"
       id="path28" />
    <path
       d="m 178.14388,104.20018 h 3.02786 v -5.087219 c 0,-0.272261 0.0197,-0.544251 0.0996,-0.738877 0.21889,-0.543982 0.7171,-1.107372 1.55356,-1.107372 1.09564,0 1.53393,0.835381 1.53393,2.060013 v 4.873455 h 3.02761 v -5.22335 c 0,-2.798081 -1.49379,-4.100078 -3.4859,-4.100078 -1.63345,0 -2.35055,0.913016 -2.74897,1.534901 h 0.0202 v -1.321136 h -3.02786 c 0.0397,0.854789 0,9.109663 0,9.109663 z"
       style="fill:#000000;fill-opacity:1;fill-rule:evenodd;stroke:none;stroke-width:0.269565"
       id="path30" />
  </g>
</svg>
