<?xml version="1.0" encoding="utf-8"?>
<!-- Generator: Adobe Illustrator 22.1.0, SVG Export Plug-In . SVG Version: 6.00 Build 0)  -->
<svg version="1.1" id="Layer_1" xmlns="http://www.w3.org/2000/svg" xmlns:xlink="http://www.w3.org/1999/xlink" x="0px" y="0px"
	 viewBox="0 0 512 512" style="enable-background:new 0 0 512 512;" xml:space="preserve">
<g fill="#fff">
	<path d="M218.6,201.9l95.6,54.3l-95.6,54.3V201.9z M481,79.2v353.6c0,26.6-21.6,48.2-48.2,48.2H79.2C52.6,481,31,459.4,31,432.8
		V79.2C31,52.6,52.6,31,79.2,31h353.6C459.4,31,481,52.6,481,79.2z M438.8,256.3c0,0,0-59.9-7.6-88.6c-4.2-15.9-16.6-28.3-32.3-32.5
		c-28.4-7.7-142.8-7.7-142.8-7.7s-114.4,0-142.8,7.7c-15.8,4.2-28.1,16.7-32.3,32.5c-7.6,28.6-7.6,88.6-7.6,88.6s0,59.9,7.6,88.6
		c4.2,15.9,16.6,27.8,32.3,32c28.4,7.6,142.8,7.6,142.8,7.6s114.4,0,142.8-7.7c15.8-4.2,28.1-16.2,32.3-32
		C438.8,316.2,438.8,256.3,438.8,256.3L438.8,256.3z"/>
</g>
</svg>
