<svg version="1.2" xmlns="http://www.w3.org/2000/svg" viewBox="0 0 700 700" width="700" height="700">
	<title>image</title>
	<style>
		.s0 { fill: #ffffff } 
		.s1 { fill: #1d1e1c } 
		.s2 { fill: #e10b17 } 
		.s3 { fill: #ed7d08 } 
	</style>
	<g id="Background">
		<path id="Path 0" class="s0" d="m0 350v350h700v-700h-700z"/>
		<path id="Path 1" class="s1" d="m368.7 361.1c-122.5 142.1-222.4 258.7-222 259.1 0.5 0.4 5.3 2 10.8 3.5l10 2.8h363c13.2-3.5 20.6-6 25-7.8 4.4-1.8 12.1-5.7 17-8.7 6.4-3.9 12.3-8.9 20.5-17 8.1-8.2 13.1-14.1 17-20.5 3-4.9 6.9-12.6 8.7-17 1.8-4.4 4.3-11.8 5.5-16.5l2.3-8.5v-363c-4.3-15.5-7.5-24.1-9.8-29-2.4-5-6.6-12.4-9.4-16.5-2.9-4.1-7.6-10.2-10.5-13.4l-5.3-6z"/>
		<path id="Path 2" class="s2" d="m175.7 71.8c-2 0.2-7.4 1.1-12 1.9-4.5 0.9-11.3 2.7-15.2 4-3.8 1.4-10.6 4.4-15 6.7-4.4 2.2-11.4 6.6-15.5 9.7-4.1 3.1-10.9 9.1-15 13.5-4.1 4.3-9.6 11.1-12.1 14.9-2.6 3.8-6 9.7-7.7 13-1.6 3.3-4.1 9.2-5.5 13-1.3 3.8-3.3 10.8-4.3 15.5-1.8 8.1-1.9 16.5-1.9 185 0 167.2 0.1 176.9 1.8 185 1 4.7 2.8 11.2 3.9 14.5 1 3.3 3.4 9.1 5.3 13 1.8 3.9 5.7 10.6 8.7 15 2.9 4.4 8.9 11.6 13.3 16.1 4.4 4.5 11.4 10.5 15.5 13.4 4.1 2.9 11.6 7.2 16.5 9.6 7.1 3.5 9.2 4.2 10.1 3.2 0.6-0.7 101-117.1 223-258.7l221.9-257.3c-6.2-5.3-11.4-9.1-15.5-11.9-4.1-2.8-10.6-6.6-14.5-8.4-3.9-1.9-9.7-4.2-13-5.3-3.3-1.1-9.4-2.8-13.5-3.8-7.1-1.7-17.9-1.8-181.5-2-95.7 0-175.7 0.1-177.8 0.4z"/>
		<path id="Path 3" class="s0" d="m250.3 143.8c-3.7 4.3-26.4 30.7-50.3 58.7-23.9 28.1-54.5 63.7-67.9 79.3-13.4 15.6-24.3 28.9-24.2 29.5 0 0.7 0.6 1.8 1.3 2.5 0.9 0.9 5.4 1.2 15.8 1.2 10.6 0 15-0.4 16.5-1.3 1.1-0.8 16.4-18 34.1-38.3 17.6-20.3 40.7-46.9 51.2-59.2 10.6-12.2 19.2-21.6 19.2-21 0 0.7-2.7 17.3-6 36.8-3.4 19.5-7.9 44.7-10 56-2.2 11.3-4.2 21.2-4.5 22-0.4 0.8 0.1 2.3 0.9 3.2 1.3 1.5 3.4 1.8 12.8 1.8 7.6 0 11.8-0.4 12.9-1.2 0.9-0.7 13.6-17.7 28.2-37.8 14.5-20.1 34.2-46.9 43.6-59.5 9.4-12.7 17.1-22.4 17.1-21.8 0 0.7-2.9 19.2-6.5 41-3.7 21.9-8.2 47.7-10.1 57.3-2 9.6-3.8 17.8-4 18.2-0.2 0.5 0.3 1.5 1.1 2.3 1.1 1.1 4.1 1.5 12.7 1.5 8 0.1 11.6-0.3 12.5-1.2 0.7-0.7 4.4-17.9 8.2-38.3 3.9-20.4 10.9-58.8 15.6-85.5 4.7-26.7 8.5-49.6 8.3-51l-0.3-2.5-27-0.6c-16.3 21.4-30.6 40.2-42.4 55.6-11.8 15.4-26.2 34.1-32 41.5-5.9 7.5-10.7 12.8-10.9 12-0.1-0.8 1.5-11.4 3.7-23.5 2.2-12.1 6.3-35.5 9.2-52 2.8-16.5 4.9-30.8 4.5-31.8-0.5-1.5-2.1-1.7-13.5-1.7h-13z"/>
		<path id="Path 4" class="s3" d="m373.8 411.1c-2.1 0.5-5.2 1.6-6.8 2.4-1.6 0.8-3.9 2.7-5 4.2-1.5 2-2.1 4.3-2 7.8 0 3.1 0.9 6.9 2.4 10 1.2 2.7 5.2 8.6 8.7 12.9 3.5 4.4 10 11.1 14.4 15.1 4.4 3.9 12.5 10.4 18 14.5 5.5 4 11.4 8.4 13 9.6 2.2 1.5 3.5 3.8 4.7 8 1 3.3 3.4 8.8 5.5 12.3 2.1 3.6 6.8 9.5 10.5 13.3 5.1 5 8.9 7.8 15 10.8 4.6 2.2 11.2 4.7 14.8 5.4 3.6 0.7 6.7 1.2 7 1 0.3-0.2-2.6-3.6-6.5-7.7-4.1-4.3-8.3-10-10.2-13.8-1.7-3.5-3.1-6.5-3-6.7 0.1-0.2 5.1 1.9 11.2 4.7 6 2.7 14.4 6.3 18.5 7.9 4.1 1.6 13.8 5 21.5 7.5 7.7 2.5 18.3 5.4 23.5 6.5 5.2 1.2 14.2 2.6 20 3.3 8 0.8 12.3 0.8 18 0 4.1-0.7 9.5-2.2 11.9-3.4 2.5-1.2 5.1-3.3 6-4.7 0.8-1.4 1.5-4.3 1.4-6.5 0-2.2-1-6.3-2.2-9-1.2-2.8-4.6-8.2-7.5-12-3-3.9-8.7-10.2-12.8-14-4-3.9-10.8-9.8-15.1-13.3-4.2-3.4-8.2-6.2-8.7-6.2-0.6 0-0.8 1.2-0.5 2.7 0.4 1.8 4.8 7.1 12.3 14.8 7.6 7.8 12.9 14.1 14.9 18 2.2 4.1 3.2 7.4 3.3 10.5 0 2.5-0.7 5.5-1.5 6.7-0.8 1.3-3 3.1-4.8 4-2.6 1.5-5.7 1.8-16.2 1.8-8.8 0-15.8-0.6-21.5-1.9-4.7-1-13.7-3.4-20-5.3-6.3-1.9-16.2-5.3-22-7.5-5.8-2.2-16.4-6.9-23.5-10.4-7.1-3.4-18.4-9.5-25-13.4-6.6-4-16.7-10.6-22.5-14.8-5.8-4.2-15-12.1-20.5-17.7-6-5.9-11.2-12.2-13-15.5-1.9-3.7-2.9-7-2.9-10.1-0.1-3.3 0.5-5.3 1.9-6.9 1.1-1.3 3.8-3.1 6-4.1 2.2-1 6.7-2.1 10-2.4 3.3-0.4 10.3-0.2 15.5 0.4 5.2 0.6 14.4 2.3 20.5 3.7 6 1.3 11.2 2.7 11.5 2.9 0.3 0.3-2.8 3.8-6.8 8-5.3 5.5-8.2 9.6-10.8 15.2-2.7 5.7-3.5 8.6-3.1 10.8 0.3 1.6 2.3 5.3 4.4 8.2 2.1 2.8 6.7 7.5 10.3 10.3 3.6 2.9 8.2 6.1 10.2 7.1 2.1 1.1 3.9 1.9 4 1.9 0.2 0 0.3-3.7 0.4-8.3 0-4.5 0.6-10.7 1.3-13.7 0.8-3 2.7-8.9 4.4-13 1.7-4.1 4.9-10.6 7.1-14.3 2.3-3.8 5.9-8.9 8.2-11.5 2.2-2.6 6.4-6.2 9.2-8 3.3-2 4.9-3.6 4.4-4.4-0.5-0.8-2.8-0.9-7.7-0.5-3.9 0.4-9.7 1.4-13 2.3-3.3 0.8-8.3 2.6-11 3.9-4.7 2.2-5.2 2.2-9 0.9-2.2-0.8-9.9-3-17-4.9-7.1-1.9-17.7-4.1-23.5-4.9-5.8-0.9-14.1-1.5-18.5-1.5-4.4 0.1-9.7 0.5-11.8 1z"/>
	</g>
</svg>