<svg id="Capa_1" data-name="Capa 1" xmlns="http://www.w3.org/2000/svg" width="165" height="35" viewBox="0 0 165 35"><defs><style>.cls-1{fill:#ff8300;}.cls-2{fill:#4c9c2e;}.cls-3{fill:#001689;}</style></defs><path class="cls-1" d="M92,.08H83.52l-.76,2.33a28.37,28.37,0,0,1,4.29,6.24l.62,1.45,5.52,17.31h-11l3.46-11.1A10.7,10.7,0,0,1,79,13.61l-6.72,20.6h30.87Z"/><path class="cls-2" d="M78.87,2.74a18,18,0,0,1,9.8,10.45,1.84,1.84,0,0,0-.09-.4C85.19,2.1,81.71.52,74,0c2.21,7.14,3.42,13.75,12.32,15.43a4.52,4.52,0,0,0,1.09.06,5.73,5.73,0,0,1,.62,2.61,1.8,1.8,0,0,0,1.08-.51A24.08,24.08,0,0,0,78.87,2.74"/><path class="cls-3" d="M12.51,8.53A9,9,0,0,0,7.45,10V.15H.27V32.87l.12.07C2.5,34.09,6.86,35,10.33,35c7.91,0,12.09-5,12.09-14.38,0-7.68-3.61-12.09-9.91-12.09M10.62,29.71a8.45,8.45,0,0,1-3.17-.65V16.8a3,3,0,0,1,3.27-2.88c3.08,0,4.52,2.43,4.52,7.63,0,5.57-1.47,8.16-4.62,8.16"/><path class="cls-3" d="M36,8.53c-5.69,0-11.76,3.5-11.76,13.31,0,8.48,3.92,13.16,11,13.16,7.31,0,11.85-5.3,11.85-13.85,0-10.43-6-12.62-11.12-12.62m-.3,5.35c2.8,0,4,2.47,4,8,0,5.2-1.35,7.72-4.13,7.72-3.63,0-4.09-4.56-4.09-8.54,0-2.69.54-7.19,4.18-7.19"/><path class="cls-3" d="M62.3,8.53a8.78,8.78,0,0,0-7.18,3.31l-.44-2.58h-6L49.09,14V34.27h7.18v-16a4,4,0,0,1,4-4.13c2.32,0,2.78,1.69,2.78,4.42V34.27h7.19v-17c0-5.73-2.75-8.76-7.93-8.76"/><path class="cls-3" d="M120.68,9.43a8.85,8.85,0,0,0-4.13-.9,6.43,6.43,0,0,0-5.71,3.7l-.55-3h-5.91l.52,4.49V34.27h7.18V18.79c.09-2.46,1.56-4,3.84-4a7.14,7.14,0,0,1,3.34.85l.26.14,1.31-6.27Z"/><path class="cls-3" d="M138.81,27.22l-.22.15a10.44,10.44,0,0,1-5.93,2.05,5.07,5.07,0,0,1-5.31-4.36c8.78-.42,13.23-3.53,13.23-9.23,0-4.57-3.09-7.3-8.26-7.3-8.44,0-12.29,7.18-12.29,13.84C120,32.81,126.43,35,131.79,35a15.3,15.3,0,0,0,9-2.77l.12-.1ZM132,13.73a2,2,0,0,1,2.25,2.15c0,3.18-4.4,3.87-7.2,4,.21-3,1.82-6.13,4.95-6.13"/><path class="cls-3" d="M164.22,29.16V10.39l-.14-.05a28.74,28.74,0,0,0-9-1.81c-8.31,0-13.07,5.22-13.07,14.33,0,10,5.23,12.09,9.63,12.09a7.66,7.66,0,0,0,6.54-3.1l.34,2.43h6.2Zm-10.88.45c-2.85,0-4.18-2.27-4.18-7.14,0-7,2.77-8.5,5.1-8.5a8.14,8.14,0,0,1,2.83.45V26.2a3.51,3.51,0,0,1-3.75,3.41"/></svg>