<svg version="1.2" xmlns="http://www.w3.org/2000/svg" viewBox="0 0 1000 163" width="1000" height="163">
	<title>image (7)</title>
	<style>
		.s0 { fill: #ffffff } 
		.s1 { fill: #000000 } 
	</style>
	<g id="Background">
		<path id="Path 0" class="s0" d="m0 81.5v81.5h1000v-163h-1000z"/>
		<path id="Path 1" class="s1" d="m55 45.6c-3 0.8-7.3 2.5-9.5 3.8-2.2 1.3-6.2 4.8-8.8 7.7-3.4 3.8-5.4 7.2-6.7 11.4-1 3.3-2.1 8.7-2.5 12-0.4 3.4-0.2 8.6 0.4 12 0.6 3.3 2.4 8.7 4 12 1.6 3.3 4.1 7.2 5.5 8.7 1.4 1.6 4.3 3.9 6.4 5.3 2 1.4 7.1 3.4 11.2 4.5 4.1 1.1 9.1 2 11 2 1.9 0 6.4-0.7 10-1.6 3.6-0.8 8.7-2.7 11.4-4.2 2.7-1.5 6.2-4.3 7.9-6.2 1.7-1.9 4.1-6 5.5-9 1.3-3 2.1-6.1 1.8-6.8-0.4-0.8-2.9-1.1-8.3-1l-7.6 0.3c-3.5 6.2-6.2 9.3-8.2 11-3.4 2.8-4.3 3-11.5 3-7.1 0-8.2-0.3-12.2-3-2.5-1.8-5.4-5.2-7-8-1.5-2.8-3-7.5-3.4-10.5-0.4-3.1-0.2-8.1 0.5-11.5 0.6-3.3 2.2-7.7 3.6-9.8 1.4-2 4.4-4.9 6.7-6.5 3.6-2.4 5.1-2.7 11.9-2.7 7.1 0 8 0.2 11.6 3.1 2.1 1.7 4.6 4.6 5.6 6.5 0.9 1.9 2.3 3.7 3 4.1 0.6 0.4 4.5 0.8 8.4 0.8h7.3c-1-4.3-1.9-7.1-2.7-9-0.8-1.9-2.9-5.3-4.7-7.5-1.8-2.2-5-5.1-7.2-6.4-2.1-1.4-6.2-3.1-8.9-3.8-2.8-0.7-8.2-1.5-12-1.8-4.7-0.3-8.8 0-12.5 1.1zm169-0.6c-2.5 0.6-7 2.2-10 3.7-3 1.5-7.1 4.4-9 6.5-1.9 2-4.5 5.6-5.7 8-1.2 2.3-2.9 7.5-3.8 11.3-0.8 3.8-1.5 8.8-1.5 11 0 2.2 0.7 6.7 1.6 10 0.8 3.3 2.3 7.6 3.2 9.5 0.9 1.9 4.1 6 7.2 9.1 3.8 3.8 7.2 6.2 11 7.6 3 1.1 8.7 2.4 12.5 2.8 5.1 0.5 8.7 0.3 13.3-0.9 3.4-0.9 8.1-2.5 10.4-3.7 2.4-1.2 6-3.8 8.1-5.8 2.1-2 5-5.7 6.3-8.3 1.3-2.7 3.1-7.8 4-11.5 1-4.4 1.4-9 1.1-12.8-0.3-3.3-1.6-9.2-2.8-13-1.8-6-3.1-7.9-8.3-13.1-4.5-4.4-7.7-6.7-12.1-8.3-3.6-1.4-8.9-2.4-13.5-2.7-4.1-0.1-9.5 0.1-12 0.6zm441 0.1c-2.5 0.5-6.5 1.9-9 3.1-2.5 1.2-6.8 4.5-9.5 7.3-2.8 2.8-5.8 6.8-6.9 9-1 2.2-2.5 6.9-3.2 10.5-0.8 3.6-1.4 8.3-1.4 10.5 0 2.2 0.9 7.4 2 11.5 1.3 4.5 3.6 9.7 5.8 12.9 2 2.9 6 6.8 8.7 8.6 2.8 1.8 6.4 3.8 8 4.5 1.6 0.6 7 1.2 12 1.3 7 0 10-0.4 13.5-1.9 2.5-1.1 6.2-3.5 8.3-5.2l3.7-3.2v10h14v-43h-35v13c19.9 0 20 0 19.4 2.3-0.4 1.2-1 3.1-1.4 4.2-0.4 1.1-2.5 3.6-4.6 5.6-2.9 2.7-5.4 3.9-9.9 4.8-5.2 1.1-6.7 1-11-0.5-3.2-1.1-6.6-3.3-9.2-6-2.9-3-4.8-6.1-5.8-9.6-0.8-2.9-1.5-7.2-1.5-9.5 0-2.4 0.5-6.7 1.2-9.5 0.6-3 2.5-7.1 4.2-9.2 1.7-2.2 5.1-5 7.6-6.4 3.7-1.9 5.6-2.3 10.5-2 4 0.3 7.5 1.3 10.5 3 3.1 1.7 5.1 3.9 6.5 6.7l2 4.2c12-0.1 15.7-0.4 16-0.8 0.2-0.5-0.3-3-1.2-5.8-1.2-3.5-3.3-6.7-7.2-10.6-4-4-7.3-6.2-11.6-7.8-3.7-1.4-8.9-2.4-13.5-2.7-4.1-0.1-9.5 0.1-12 0.7zm-548 39.4v39.5h16v-30h17.5l17 30c17.5 0 17.5 0 16.4-2.2-0.7-1.3-4.5-8.1-8.5-15.3-4-7.2-7.3-13.7-7.4-14.5 0-0.8 1.6-2.6 3.6-4 2-1.4 4.9-4.5 6.5-7 1.6-2.5 3.1-6.5 3.5-9 0.4-2.8 0-6.6-0.9-10-0.9-3-2.5-6.7-3.6-8.2-1.2-1.6-3.8-3.7-5.8-4.7-2.1-1-6.5-2.4-9.8-3-3.3-0.6-14.7-1.1-25.2-1.1h-19.3zm171.2-3.8c4.9 19.7 9.3 37.5 9.8 39.6l1 3.7c15.6 0.1 18.8-0.3 19.6-1.2 0.6-0.7 3-8.7 5.3-17.8 2.3-9.1 5.6-21.4 7.3-27.5 1.6-6 3.4-11.4 3.8-12 0.6-0.6 1.4 0.8 2.1 3.5 0.6 2.5 4.2 15.8 7.9 29.5l6.7 25 19.8 0.6c2.9-12.1 7.3-29.1 11.6-45.6 4.2-16.5 8-30.8 8.3-31.7 0.5-1.6-0.2-1.8-7.6-1.5l-8.1 0.2c-8.9 34.9-12.2 47.7-13.1 51-1 3.7-2 5.6-2.6 5-0.5-0.5-3.1-9.3-5.8-19.5-2.7-10.2-6-22.7-7.3-27.8l-2.4-9.2h-18c-11.6 42.9-15.4 55.5-16 55.7-0.6 0.2-4.2-12.2-8.1-27.4l-7-27.8-16-0.6zm115.7 3.8v39.5c18.3-0.1 28.5-0.5 34.5-0.9 8.8-0.6 12.3-1.3 17-3.5 3.3-1.5 7.3-3.9 8.9-5.4 1.5-1.5 4.1-4.7 5.7-7.2 1.8-2.8 3.5-7.4 4.5-12.5 1-5 1.4-10.2 1-14-0.3-3.3-1.4-8.7-2.5-12-1.3-3.8-3.6-7.8-6.3-10.8-2.7-3.2-6.5-6-10.8-8-4.7-2.3-8.6-3.3-14.5-3.8-4.4-0.4-14.6-0.8-22.7-0.8l-14.8-0.1zm116.2-0.1l-0.2 39.6c18.3-0.1 28.5-0.5 34.5-0.9 9-0.6 12.3-1.3 17.5-3.7 3.9-1.8 7.8-4.5 10-7 1.9-2.2 4.4-5.8 5.4-8 1.1-2.1 2.5-6.8 3.3-10.4 0.7-3.6 1.3-8.1 1.3-10 0.1-1.9-0.8-7-1.9-11.2-1.1-4.3-3.4-9.8-5.1-12.3-1.6-2.5-5.3-6.1-8.2-8-2.9-1.9-7.5-4.2-10.3-5.1-3.6-1.1-10.5-1.7-25.6-2.1l-20.6-0.5zm84.9 0.1v39.5h16v-79h-16zm124 0v39.5h16v-79h-16zm28-32.5v7h26v65h16v-65h26v-14h-68zm95.4-6.2c-0.6 0.4-3.9 8.1-7.2 17.2-3.4 9.1-9.7 26.3-14.2 38.2-4.4 12-8 22-8 22.3 0 0.3 3.7 0.4 8.2 0.2l8.2-0.2 6.1-16h33.7l6.3 16.5h16.5c-2.9-7.4-9.5-25.2-16.6-44.3l-12.9-34.7c-14.7 0-19.5 0.3-20.1 0.8zm60.6 38.7v39.5h56v-14h-40v-65h-16zm-428 31v8.5h17v-17h-17z"/>
		<path id="Path 2" class="s0" d="m133.2 69.4l-0.2 11.6c23-0.5 24.9-0.8 27.8-2.8 2.3-1.6 3.4-3.2 3.8-6 0.4-2 0.2-5-0.2-6.6-0.5-1.6-2-3.7-3.4-4.8-2-1.6-4.8-2-15.1-2.5l-12.6-0.6zm91.9-9.7c-2 0.8-4.6 2.5-5.9 3.7-1.3 1.2-3.5 4.4-5 7.2-2.2 4.3-2.6 6.2-2.6 14 0 8.1 0.3 9.5 3 14.4 1.8 3.4 4.6 6.7 7.3 8.5 3.9 2.7 5.1 3.1 11.6 3.1 6.6 0 7.8-0.4 11.7-3.1 2.5-1.7 5.5-5.1 7.1-8 1.6-3 2.9-7.4 3.3-10.9 0.4-3.7 0.2-8.4-0.6-12-0.8-3.8-2.5-7.5-4.4-10-1.7-2.1-5.1-4.9-7.5-6.2-3.1-1.6-6.2-2.4-9.5-2.3-2.8 0-6.6 0.7-8.5 1.6zm195.1 24.7l-0.1 25.7c12 0 17.9-0.5 21-1.1 3.3-0.6 6.8-2.1 9-3.8 1.9-1.6 4.5-4.8 5.9-7.2 2-3.8 2.4-5.8 2.4-13.4-0.1-6.6-0.5-10-1.8-12.5-1-2-3-4.8-4.4-6.4-1.5-1.5-4.2-3.5-6.1-4.3-2.1-0.9-8.1-1.8-14.7-2.1l-11.1-0.5zm116 0l-0.1 25.6c12 0 18-0.4 21-1 3.4-0.6 6.9-2.1 9-3.8 1.9-1.6 4.6-4.8 5.9-7.3 2.1-3.7 2.4-5.7 2.4-13.4 0-6.5-0.5-9.9-1.8-12.5-0.9-1.9-2.9-4.8-4.4-6.3-1.4-1.6-4.2-3.5-6.1-4.4-2.1-0.9-8-1.7-14.6-2l-11.1-0.6zm324.7-19.7c-0.9 1.6-3.5 8.3-5.8 14.9-2.2 6.6-4.1 12.5-4.1 13.2 0 1 3 1.3 11.5 1.3 8.6 0 11.5-0.3 11.5-1.3 0-0.7-2.3-7.5-5.1-15.2-2.8-7.7-5.4-14.4-5.7-14.9-0.4-0.5-1.4 0.4-2.3 2z"/>
	</g>
</svg>